{
  "accessors": [
    {
      "bufferView": 2,
      "componentType": 5126,
      "count": 8971,
      "max": [
        0.5536980032920837,
        0.08384080231189728,
        0.5438159704208374
      ],
      "min": [
        -0.5573859810829163,
        -0.7136549949645996,
        -0.5466740131378174
      ],
      "type": "VEC3"
    },
    {
      "bufferView": 2,
      "byteOffset": 107652,
      "componentType": 5126,
      "count": 8971,
      "max": [
        1.0,
        1.0,
        1.0
      ],
      "min": [
        -1.0,
        -0.9999926686286926,
        -1.0
      ],
      "type": "VEC3"
    },
    {
      "bufferView": 3,
      "componentType": 5126,
      "count": 8971,
      "max": [
        1.0,
        1.0,
        1.0,
        1.0
      ],
      "min": [
        -0.9999926686286926,
        -1.0,
        -1.0,
        -1.0
      ],
      "type": "VEC4"
    },
    {
      "bufferView": 1,
      "componentType": 5126,
      "count": 8971,
      "max": [
        0.9980080127716064,
        0.9022539854049683
      ],
      "min": [
        0.001992030069231987,
        0.0018009099876508117
      ],
      "type": "VEC2"
    },
    {
      "bufferView": 1,
      "byteOffset": 71768,
      "componentType": 5126,
      "count": 8971,
      "max": [
        1.268839955329895,
        1.3900799751281738
      ],
      "min": [
        -0.16394099593162537,
        -0.4299030005931854
      ],
      "type": "VEC2"
    },
    {
      "bufferView": 0,
      "componentType": 5125,
      "count": 30906,
      "type": "SCALAR"
    },
    {
      "bufferView": 2,
      "byteOffset": 215304,
      "componentType": 5126,
      "count": 2858,
      "max": [
        0.9358289837837219,
        1.0,
        0.9318370223045349
      ],
      "min": [
        -0.9358289837837219,
        -1.0,
        -0.9318370223045349
      ],
      "type": "VEC3"
    },
    {
      "bufferView": 2,
      "byteOffset": 249600,
      "componentType": 5126,
      "count": 2858,
      "max": [
        1.0,
        1.0,
        0.9957343339920044
      ],
      "min": [
        -1.0,
        -1.0,
        -0.9957342147827148
      ],
      "type": "VEC3"
    },
    {
      "bufferView": 3,
      "byteOffset": 143536,
      "componentType": 5126,
      "count": 2858,
      "max": [
        0.9999991059303284,
        0.9996458292007446,
        1.0,
        1.0
      ],
      "min": [
        -0.9993574023246765,
        -0.9996453523635864,
        -1.0,
        -1.0
      ],
      "type": "VEC4"
    },
    {
      "bufferView": 1,
      "byteOffset": 143536,
      "componentType": 5126,
      "count": 2858,
      "max": [
        0.9951170086860657,
        0.9941350221633911
      ],
      "min": [
        0.0048828101716935635,
        0.0048828101716935635
      ],
      "type": "VEC2"
    },
    {
      "bufferView": 0,
      "byteOffset": 123624,
      "componentType": 5125,
      "count": 7404,
      "type": "SCALAR"
    }
  ],
  "asset": {
    "extras": {
      "author": "kand8998 (https://sketchfab.com/KaitlynAndrus)",
      "license": "CC-BY-4.0 (http://creativecommons.org/licenses/by/4.0/)",
      "source": "https://sketchfab.com/3d-models/snow-globe-bb79d86e48f84236a5a2bd1688a59949",
      "title": "Snow-Globe"
    },
    "generator": "Sketchfab-12.68.0",
    "version": "2.0"
  },
  "bufferViews": [
    {
      "buffer": 0,
      "byteLength": 153240,
      "name": "floatBufferViews",
      "target": 34963
    },
    {
      "buffer": 0,
      "byteLength": 166400,
      "byteOffset": 153240,
      "byteStride": 8,
      "name": "floatBufferViews",
      "target": 34962
    },
    {
      "buffer": 0,
      "byteLength": 283896,
      "byteOffset": 319640,
      "byteStride": 12,
      "name": "floatBufferViews",
      "target": 34962
    },
    {
      "buffer": 0,
      "byteLength": 189264,
      "byteOffset": 603536,
      "byteStride": 16,
      "name": "floatBufferViews",
      "target": 34962
    }
  ],
  "buffers": [
    {
      "byteLength": 792800,
      "uri": "snow_globe.bin"
    }
  ],
  "images": [
    {
      "uri": "textures/Globe_baseColor.png"
    },
    {
      "uri": "textures/Globe_metallicRoughness.png"
    },
    {
      "uri": "textures/Globe_normal.png"
    },
    {
      "uri": "textures/Snowman_baseColor.png"
    },
    {
      "uri": "textures/Snowman_metallicRoughness.png"
    },
    {
      "uri": "textures/Snowman_normal.png"
    }
  ],
  "materials": [
    {
      "alphaMode": "BLEND",
      "doubleSided": true,
      "name": "Globe",
      "normalTexture": {
        "index": 2
      },
      "occlusionTexture": {
        "index": 1
      },
      "pbrMetallicRoughness": {
        "baseColorTexture": {
          "index": 0
        },
        "metallicRoughnessTexture": {
          "index": 1
        }
      }
    },
    {
      "alphaMode": "BLEND",
      "doubleSided": true,
      "name": "Snowman",
      "normalTexture": {
        "index": 5
      },
      "occlusionTexture": {
        "index": 4
      },
      "pbrMetallicRoughness": {
        "baseColorTexture": {
          "index": 3
        },
        "metallicRoughnessTexture": {
          "index": 4
        }
      }
    }
  ],
  "meshes": [
    {
      "name": "defaultMaterial",
      "primitives": [
        {
          "attributes": {
            "NORMAL": 1,
            "POSITION": 0,
            "TANGENT": 2,
            "TEXCOORD_0": 3,
            "TEXCOORD_1": 4
          },
          "indices": 5,
          "material": 1,
          "mode": 4
        }
      ]
    },
    {
      "name": "defaultMaterial",
      "primitives": [
        {
          "attributes": {
            "NORMAL": 7,
            "POSITION": 6,
            "TANGENT": 8,
            "TEXCOORD_0": 9
          },
          "indices": 10,
          "material": 0,
          "mode": 4
        }
      ]
    }
  ],
  "nodes": [
    {
      "children": [
        1
      ],
      "matrix": [
        1.0,
        0.0,
        0.0,
        0.0,
        0.0,
        2.220446049250313e-16,
        -1.0,
        0.0,
        0.0,
        1.0,
        2.220446049250313e-16,
        0.0,
        0.0,
        0.0,
        0.0,
        1.0
      ],
      "name": "Sketchfab_model"
    },
    {
      "children": [
        2,
        4
      ],
      "matrix": [
        1.0,
        0.0,
        0.0,
        0.0,
        0.0,
        -4.371139006309477e-08,
        0.999999999999999,
        0.0,
        0.0,
        -0.999999999999999,
        -4.371139006309477e-08,
        0.0,
        0.0,
        0.0,
        0.0,
        1.0
      ],
      "name": "Collada visual scene group"
    },
    {
      "children": [
        3
      ],
      "name": "lantern_Geo1"
    },
    {
      "mesh": 0,
      "name": "defaultMaterial"
    },
    {
      "children": [
        5
      ],
      "name": "merge1_0"
    },
    {
      "mesh": 1,
      "name": "defaultMaterial"
    }
  ],
  "samplers": [
    {
      "magFilter": 9729,
      "minFilter": 9987,
      "wrapS": 10497,
      "wrapT": 10497
    }
  ],
  "scene": 0,
  "scenes": [
    {
      "name": "Sketchfab_Scene",
      "nodes": [
        0
      ]
    }
  ],
  "textures": [
    {
      "sampler": 0,
      "source": 0
    },
    {
      "sampler": 0,
      "source": 1
    },
    {
      "sampler": 0,
      "source": 2
    },
    {
      "sampler": 0,
      "source": 3
    },
    {
      "sampler": 0,
      "source": 4
    },
    {
      "sampler": 0,
      "source": 5
    }
  ]
}
